<svg xmlns="http://www.w3.org/2000/svg" viewBox="0 0 800 340" font-family="system-ui, sans-serif">
  <title>memshelf token economy — cumulative, log scale</title>
  <text x="64" y="20" font-size="14" font-weight="600" fill="#666666">Token economy — cumulative (log scale)</text>
  <line x1="64" x2="640" y1="290.0" y2="290.0" stroke="#d8d6cc" stroke-width="1"/><text x="56" y="294.0" text-anchor="end" font-size="11" fill="#666666">100</text><line x1="64" x2="640" y1="229.2" y2="229.2" stroke="#d8d6cc" stroke-width="1"/><text x="56" y="233.2" text-anchor="end" font-size="11" fill="#666666">1K</text><line x1="64" x2="640" y1="168.4" y2="168.4" stroke="#d8d6cc" stroke-width="1"/><text x="56" y="172.4" text-anchor="end" font-size="11" fill="#666666">10K</text><line x1="64" x2="640" y1="107.5" y2="107.5" stroke="#d8d6cc" stroke-width="1"/><text x="56" y="111.5" text-anchor="end" font-size="11" fill="#666666">100K</text><line x1="64" x2="640" y1="46.7" y2="46.7" stroke="#d8d6cc" stroke-width="1"/><text x="56" y="50.7" text-anchor="end" font-size="11" fill="#666666">1.00M</text>
  <line x1="64" x2="640" y1="290" y2="290" stroke="#9a978c" stroke-width="1"/>
  <polyline points="64.0,40.6 640.0,40.0" fill="none" stroke="#9a978c" stroke-width="2" stroke-linejoin="round"/><circle cx="64.0" cy="40.6" r="3" fill="#9a978c"/><circle cx="640.0" cy="40.0" r="3" fill="#9a978c"/>
  <polyline points="64.0,270.2 640.0,252.9" fill="none" stroke="#2a78d6" stroke-width="2" stroke-linejoin="round"/><circle cx="64.0" cy="270.2" r="3" fill="#2a78d6"/><circle cx="640.0" cy="252.9" r="3" fill="#2a78d6"/>
  <text x="648" y="44.0" font-size="12" fill="#9a978c">without memshelf: 1.29M</text>
  <text x="648" y="256.9" font-size="12" fill="#2a78d6">on the shelf: 407</text>
  <text x="648" y="150.5" font-size="12" font-weight="600" fill="#666666">saved 3169.5:1</text>
  <text x="64.0" y="308" text-anchor="middle" font-size="10" fill="#666666">09-10</text><text x="640.0" y="308" text-anchor="middle" font-size="10" fill="#666666">09-26</text>
  <text x="64" y="330" font-size="10" fill="#9a978c">digests only; INDEX adds a small flat cost per session · chars/4 estimate · redrawn by memshelf rebuild · as of 2026-09-26</text>
</svg>
